<svg xmlns="http://www.w3.org/2000/svg" xmlns:xlink="http://www.w3.org/1999/xlink" width="40" zoomAndPan="magnify" viewBox="0 0 375 299.999988" height="40" preserveAspectRatio="xMidYMid meet" version="1.2"><defs><clipPath id="ecf516d48c"><path d="M 0 10.546875 L 375 10.546875 L 375 289.546875 L 0 289.546875 Z M 0 10.546875 "></path></clipPath></defs><g id="75099405b0"><g clip-rule="nonzero" clip-path="url(#ecf516d48c)"><path d="M 375 10.574219 L 375 200.550781 C 375 212.550781 372.675781 224.175781 368.023438 235.125 C 363.523438 245.699219 357.148438 255.226562 348.976562 263.398438 C 340.800781 271.574219 331.351562 277.949219 320.699219 282.449219 C 309.75 287.101562 298.125 289.425781 286.125 289.425781 C 268.5 289.425781 251.398438 284.25 236.773438 274.425781 C 222.226562 264.75 211.050781 251.101562 204.226562 235.050781 L 191.925781 209.625 L 172.050781 168.601562 L 134.699219 91.351562 L 56.023438 254.25 L 181.273438 254.25 C 188.101562 267.675781 197.476562 279.523438 208.800781 289.425781 L 0 289.425781 L 134.625 10.574219 L 200.550781 146.773438 L 221.023438 189.148438 L 236.25 220.574219 L 236.476562 221.023438 C 240.523438 230.851562 247.425781 239.25 256.273438 245.175781 C 265.125 251.101562 275.476562 254.25 286.125 254.25 C 300.449219 254.25 313.949219 248.625 324.074219 238.5 C 334.199219 228.375 339.824219 214.875 339.824219 200.550781 L 339.824219 45.75 L 183.824219 45.75 L 166.800781 10.574219 Z M 375 10.574219 " style="stroke: rgb(255, 255, 255); stroke-width: 10; fill-rule: nonzero; fill: rgb(255, 255, 255); fill-opacity: 1;"></path><path d="M 375 10.574219 L 375 200.550781 C 375 212.550781 372.675781 224.175781 368.023438 235.125 C 363.523438 245.699219 357.148438 255.226562 348.976562 263.398438 C 340.800781 271.574219 331.351562 277.949219 320.699219 282.449219 C 309.75 287.101562 298.125 289.425781 286.125 289.425781 C 268.5 289.425781 251.398438 284.25 236.773438 274.425781 C 222.226562 264.75 211.050781 251.101562 204.226562 235.050781 L 191.925781 209.625 L 172.050781 168.601562 L 134.699219 91.351562 L 56.023438 254.25 L 181.273438 254.25 C 188.101562 267.675781 197.476562 279.523438 208.800781 289.425781 L 0 289.425781 L 134.625 10.574219 L 200.550781 146.773438 L 221.023438 189.148438 L 236.25 220.574219 L 236.476562 221.023438 C 240.523438 230.851562 247.425781 239.25 256.273438 245.175781 C 265.125 251.101562 275.476562 254.25 286.125 254.25 C 300.449219 254.25 313.949219 248.625 324.074219 238.5 C 334.199219 228.375 339.824219 214.875 339.824219 200.550781 L 339.824219 45.75 L 183.824219 45.75 L 166.800781 10.574219 Z M 375 10.574219 " style="stroke: rgb(255, 255, 255); stroke-width: 10; fill-rule: nonzero; fill: rgb(0, 0, 0); fill-opacity: 1;"></path></g></g></svg>